<svg width="33" height="27" viewBox="0 0 33 27" fill="none" xmlns="http://www.w3.org/2000/svg">
<path d="M33 3.28805C31.7643 3.83675 30.4536 4.19687 29.1114 4.35643C30.5094 3.51671 31.5828 2.187 32.0882 0.602651C30.7593 1.39296 29.3053 1.9498 27.7891 2.24913C26.554 0.930527 24.7946 0.106445 22.8472 0.106445C19.1082 0.106445 16.0767 3.1444 16.0767 6.89133C16.0767 7.42319 16.1366 7.94097 16.252 8.43769C10.6252 8.15464 5.63655 5.45348 2.29724 1.34845C1.71458 2.35055 1.38071 3.5162 1.38071 4.75949C1.38071 7.11353 2.57606 9.1902 4.39261 10.407C3.31746 10.3733 2.26595 10.0823 1.32593 9.55825C1.32559 9.58667 1.32546 9.61514 1.32554 9.64365C1.32554 12.9311 3.65926 15.6734 6.75636 16.2968C5.75938 16.5685 4.71363 16.6082 3.69896 16.413C4.56045 19.1086 7.06084 21.0702 10.0234 21.1251C7.70627 22.9448 4.78693 24.0296 1.61507 24.0296C1.0685 24.0296 0.529676 23.9974 0 23.9348C2.99617 25.8599 6.55488 26.9832 10.3782 26.9832C22.8315 26.9832 29.6412 16.6443 29.6412 7.6782C29.6412 7.38391 29.6347 7.09131 29.6216 6.80038C30.947 5.84001 32.091 4.65064 33 3.28805Z" fill="#55ACEE"/>
</svg>
